<svg height="512pt" viewBox="-75 0 512 512.001" width="512pt" xmlns="http://www.w3.org/2000/svg"><path d="m262.523438 174.101562c-.882813 0-1.714844.40625-2.253907 1.105469l-17.410156 22.480469c-1.140625 1.472656-3.367187 1.472656-4.511719 0l-17.40625-22.480469c-.542968-.699219-1.375-1.105469-2.257812-1.105469h-13.449219c-7.953125 0-14.402344-6.449218-14.402344-14.402343v-79.738281c0-7.953126 6.449219-14.402344 14.402344-14.402344h103.378906v-18.019532c0-22.113281-17.925781-40.039062-40.039062-40.039062h-221.03125c-22.117188 0-40.042969 17.925781-40.042969 40.039062v416.921876c0 22.113281 17.925781 40.039062 40.042969 40.039062h221.03125c22.113281 0 40.039062-17.925781 40.039062-40.039062v-290.359376zm0 0" fill="#78909c"/><path d="m268.613281 174.101562h40v290.359376c0 22.113281-17.925781 40.039062-40.039062 40.039062h-221.03125c-14.8125 0-27.734375-8.046875-34.660157-20h156.101563c55.023437 0 99.628906-44.605469 99.628906-99.628906zm-.039062-166.601562h-5.339844c3.414063 5.894531 5.378906 12.738281 5.378906 20.039062v38.023438h40v-18.023438c0-22.113281-17.925781-40.039062-40.039062-40.039062zm0 0" fill="#546e7a"/><path d="m262.523438 174.101562c-.882813 0-1.714844.40625-2.253907 1.105469l-17.410156 22.480469c-1.140625 1.472656-3.367187 1.472656-4.511719 0l-17.40625-22.480469c-.542968-.699219-1.375-1.105469-2.257812-1.105469h-13.449219c-7.953125 0-14.402344-6.449218-14.402344-14.402343v-79.738281c0-2.277344.546875-4.425782 1.488281-6.339844h-127.621093c-9.808594 0-17.761719 7.953125-17.761719 17.761718v329.234376c0 9.808593 7.953125 17.761718 17.761719 17.761718h186.714843c9.8125 0 17.761719-7.953125 17.761719-17.761718v-246.515626zm0 0" fill="#eceff1"/><path d="m262.523438 174.101562c-.882813 0-1.714844.40625-2.253907 1.105469l-17.410156 22.480469c-1.140625 1.472656-3.367187 1.472656-4.511719 0l-9.171875-11.84375v186.320312c0 25.523438-20.691406 46.214844-46.214843 46.214844h-136.023438v2.238282c0 9.808593 7.953125 17.761718 17.761719 17.761718h186.714843c9.808594 0 17.761719-7.953125 17.761719-17.761718v-246.515626zm0 0" fill="#b9c3cd"/><path d="m236.878906 350.609375h-46.785156c-2.554688 0-4.625-2.070313-4.625-4.621094v-18.617187c-9.609375 6.574218-20.222656 10.335937-27.410156 10.335937-7.191406 0-17.804688-3.761719-27.414063-10.335937v18.617187c0 2.550781-2.070312 4.621094-4.621093 4.621094h-46.785157c-17.839843 0-32.300781 14.460937-32.300781 32.300781v37.707032c0 9.8125 7.953125 17.761718 17.761719 17.761718h186.714843c9.808594 0 17.761719-7.949218 17.761719-17.761718v-37.707032c.003907-17.839844-14.457031-32.300781-32.296875-32.300781zm0 0" fill="#b2ebf2"/><path d="m236.878906 350.609375h-7.699218v21.554687c0 25.523438-20.691407 46.214844-46.21875 46.214844h-136.023438c0 2.683594-.105469 4.609375.796875 7.519532 2.25 7.230468 8.992187 12.480468 16.964844 12.480468h186.714843c9.769532 0 17.761719-7.910156 17.761719-17.761718v-37.707032c.003907-17.839844-14.457031-32.300781-32.296875-32.300781zm0 0" fill="#80deea"/><path d="m158.058594 337.707031c-15.792969 0-48.09375-18.15625-50.023438-44.359375l-3.660156-49.699218c-2.296875-31.199219 22.398438-57.78125 53.683594-57.78125s55.980468 26.582031 53.683594 57.78125l-3.660157 49.699218c-1.929687 26.203125-34.234375 44.359375-50.023437 44.359375zm0 0" fill="#ffccbc"/><path d="m210.191406 287.304688h-1.664062l2.515625-34.191407h9.046875c6.359375 0 11.515625 5.15625 11.515625 11.515625v1.261719c.003906 11.828125-9.585938 21.414063-21.414063 21.414063zm0 0" fill="#ffab91"/><path d="m105.921875 287.304688h1.667969l-2.519532-34.191407h-9.042968c-6.363282 0-11.519532 5.15625-11.519532 11.515625v1.261719c0 11.828125 9.585938 21.414063 21.414063 21.414063zm0 0" fill="#ffab91"/><path d="m158.058594 387.304688c20.25 0 36.664062-16.433594 36.628906-36.695313h-4.59375c-2.554688 0-4.621094-2.070313-4.621094-4.621094v-18.617187c-9.609375 6.574218-20.222656 10.335937-27.414062 10.335937s-17.804688-3.761719-27.414063-10.335937v18.617187c0 2.550781-2.066406 4.621094-4.621093 4.621094h-4.59375c-.039063 20.261719 16.375 36.695313 36.628906 36.695313zm0 0" fill="#ffccbc"/><path d="m159.367188 185.902344c14.6875 10.527344 23.8125 28.234375 22.375 47.746094l-3.660157 49.699218c-1.820312 24.71875-30.667969 42.269532-47.1875 44.179688 9.546875 6.46875 20.035157 10.179687 27.164063 10.179687 15.792968 0 48.09375-18.15625 50.023437-44.359375l3.660157-49.699218c2.265624-30.761719-21.714844-57.011719-52.375-57.746094zm0 0" fill="#ffab91"/><path d="m130.894531 327.535156c-.085937-.058594-.167969-.109375-.25-.167968v.1875c.082031-.007813.164063-.011719.25-.019532zm0 0" fill="#ffccbc"/><path d="m190.09375 350.609375c-2.554688 0-4.625-2.070313-4.625-4.621094v-18.617187c-9.609375 6.574218-20.222656 10.335937-27.410156 10.335937-.726563 0-1.496094-.046875-2.289063-.121093.652344 1.761718 2.332031 3.023437 4.324219 3.023437 2.625 0 4.621094 2.328125 4.273438 4.9375-2.183594 16.433594-15.273438 29.421875-31.753907 31.46875 6.589844 6.367187 15.558594 10.289063 25.445313 10.289063 20.25 0 36.664062-16.433594 36.628906-36.695313zm0 0" fill="#ffab91"/><path d="m339.972656 174.101562c7.953125 0 14.402344-6.449218 14.402344-14.402343v-79.738281c0-7.953126-6.449219-14.402344-14.402344-14.402344h-134.738281c-7.953125 0-14.402344 6.449218-14.402344 14.402344v79.738281c0 7.953125 6.449219 14.402343 14.402344 14.402343h13.449219c.882812 0 1.714844.40625 2.257812 1.105469l17.40625 22.480469c1.144532 1.476562 3.371094 1.476562 4.511719 0l17.410156-22.480469c.539063-.699219 1.371094-1.105469 2.253907-1.105469zm0 0" fill="#ffc14f"/><path d="m339.972656 65.558594h-25.597656v52.984375c0 19.636719-15.917969 35.558593-35.558594 35.558593h-87.980468v5.597657c0 7.953125 6.445312 14.402343 14.402343 14.402343h13.445313c.882812 0 1.71875.40625 2.257812 1.105469l17.40625 22.480469c1.144532 1.472656 3.371094 1.472656 4.511719 0l17.410156-22.480469c.539063-.699219 1.371094-1.105469 2.253907-1.105469h77.449218c7.953125 0 14.402344-6.449218 14.402344-14.402343v-79.738281c0-7.953126-6.449219-14.402344-14.402344-14.402344zm0 0" fill="#ffa90b"/><path d="m203.734375 48.058594c4.144531 0 7.5-3.355469 7.5-7.5 0-4.140625-3.355469-7.5-7.5-7.5h-91.355469c-4.140625 0-7.5 3.359375-7.5 7.5 0 4.144531 3.359375 7.5 7.5 7.5zm0 0"/><path d="m112.378906 463.941406c-4.140625 0-7.5 3.355469-7.5 7.5 0 4.140625 3.359375 7.5 7.5 7.5h91.355469c4.144531 0 7.5-3.359375 7.5-7.5 0-4.144531-3.355469-7.5-7.5-7.5zm0 0"/><path d="m215.003906 397.707031h-5.667968v-5.671875c0-4.140625-3.359376-7.5-7.5-7.5-4.144532 0-7.5 3.359375-7.5 7.5v5.671875h-5.671876c-4.140624 0-7.5 3.355469-7.5 7.5 0 4.140625 3.359376 7.5 7.5 7.5h5.671876v5.667969c0 4.144531 3.355468 7.5 7.5 7.5 4.140624 0 7.5-3.355469 7.5-7.5v-5.667969h5.667968c4.144532 0 7.5-3.359375 7.5-7.5 0-4.144531-3.355468-7.5-7.5-7.5zm0 0"/><path d="m354.375 102.863281c4.140625 0 7.5-3.355469 7.5-7.5v-15.402343c0-12.074219-9.824219-21.902344-21.902344-21.902344h-23.859375v-10.519532c0-26.210937-21.324219-47.539062-47.539062-47.539062h-221.03125c-26.214844 0-47.542969 21.328125-47.542969 47.539062v416.921876c0 26.214843 21.328125 47.539062 47.542969 47.539062h221.03125c26.214843 0 47.539062-21.324219 47.539062-47.539062v-46.082032c0-4.144531-3.355469-7.5-7.5-7.5-4.140625 0-7.5 3.355469-7.5 7.5v46.082032c0 17.941406-14.597656 32.539062-32.539062 32.539062h-221.03125c-17.945313 0-32.542969-14.597656-32.542969-32.539062v-416.921876c0-17.941406 14.597656-32.539062 32.542969-32.539062h221.03125c17.941406 0 32.539062 14.597656 32.539062 32.539062v10.523438h-95.875c-6.832031 0-12.941406 3.144531-16.960937 8.058594h-123.578125c-13.929688 0-25.261719 11.332031-25.261719 25.261718v30.230469c0 4.140625 3.359375 7.5 7.5 7.5s7.5-3.359375 7.5-7.5v-30.230469c0-5.660156 4.605469-10.261718 10.261719-10.261718h118.636719v78.578125c0 12.078125 9.824218 21.902343 21.902343 21.902343h11.167969l16.011719 20.679688c4.144531 5.351562 12.222656 5.355469 16.371093 0l12.890626-16.644531v166.179687c-6.808594-5.441406-15.429688-8.707031-24.800782-8.707031h-43.910156v-11.894531c11.628906-8.828125 21.257812-21.480469 22.546875-36.910156 13.410156-2.503907 23.59375-14.289063 23.59375-28.414063v-1.257813c0-10.488281-8.53125-19.019531-19.019531-19.019531h-.972656l.101562-1.410156c1.25-16.945313-4.667969-33.800781-16.230469-46.25-11.566406-12.445313-27.941406-19.585937-44.929687-19.585937-16.992188 0-33.367188 7.140624-44.929688 19.585937-11.566406 12.449219-17.480468 29.304687-16.234375 46.246094l.105469 1.414062h-.976562c-10.484376 0-19.015626 8.53125-19.015626 19.015625v1.261719c0 14.125 10.183594 25.90625 23.589844 28.414063 1.289063 15.429687 10.917969 28.082031 22.546875 36.910156v11.894531h-43.90625c-9.375 0-17.992187 3.265625-24.800781 8.707031v-195.203125c0-4.144531-3.359375-7.5-7.5-7.5s-7.5 3.355469-7.5 7.5v264.003907c0 13.929687 11.332031 25.261718 25.261719 25.261718h186.714843c13.929688 0 25.265626-11.332031 25.265626-25.261718v-239.015626h24.433593v201.777344c0 4.140625 3.359375 7.5 7.5 7.5 4.144531 0 7.5-3.359375 7.5-7.5v-201.777344h23.859375c12.078125 0 21.902344-9.824218 21.902344-21.902343v-29.335938c0-4.140625-3.359375-7.5-7.5-7.5s-7.5 3.359375-7.5 7.5v29.335938c0 3.804687-3.097656 6.902343-6.902344 6.902343h-77.449218c-3.179688 0-6.238282 1.5-8.183594 4.011719l-13.734375 17.738281-13.734375-17.738281c-1.949219-2.511719-5.007813-4.011719-8.1875-4.011719h-13.449219c-3.804687 0-6.902344-3.097656-6.902344-6.902343v-79.738281c0-3.804688 3.097657-6.902344 6.902344-6.902344h134.738281c3.804688 0 6.902344 3.097656 6.902344 6.902344v15.402343c0 4.144531 3.355469 7.5 7.5 7.5zm-134.285156 157.75c2.214844 0 4.019531 1.800781 4.019531 4.015625v1.261719c0 5.316406-2.996094 9.945313-7.390625 12.285156l1.292969-17.5625zm-128.082032 5.277344v-1.261719c0-2.214844 1.800782-4.015625 4.015626-4.015625h2.078124l1.296876 17.5625c-4.394532-2.339843-7.390626-6.96875-7.390626-12.285156zm19.847657-22.789063c-1.96875-26.726562 19.089843-49.734374 46.203125-49.734374 26.796875 0 48.191406 22.695312 46.203125 49.734374-4.691407 63.699219-3.375 45.8125-3.660157 49.695313-.832031 11.296875-9.058593 21.15625-18.574218 27.914063-.546875.285156-1.050782.632812-1.511719 1.035156-7.976563 5.324218-16.613281 8.460937-22.457031 8.460937s-14.484375-3.136719-22.460938-8.460937c-.457031-.402344-.964844-.75-1.507812-1.035156-9.515625-6.757813-17.742188-16.617188-18.574219-27.914063zm46.203125 102.105469c5.480468 0 12.582031-1.777343 19.910156-5.078125v5.859375c0 5.390625 3.539062 9.960938 8.410156 11.535157-1.238281 5.15625-3.863281 9.886718-7.707031 13.734374-11.386719 11.40625-29.839844 11.40625-41.230469 0-3.839844-3.847656-6.46875-8.578124-7.703125-13.734374 4.871094-1.574219 8.40625-6.144532 8.40625-11.535157v-5.859375c7.332031 3.300782 14.429688 5.078125 19.914063 5.078125zm103.621094 75.410157c0 5.660156-4.605469 10.261718-10.265626 10.261718h-13.585937v-7.050781c0-4.144531-3.359375-7.5-7.5-7.5-4.144531 0-7.5 3.355469-7.5 7.5v7.050781h-129.539063v-7.050781c0-4.144531-3.359374-7.5-7.5-7.5-4.140624 0-7.5 3.355469-7.5 7.5v7.050781h-13.589843c-5.660157 0-10.261719-4.605468-10.261719-10.261718v-37.707032c0-13.675781 11.125-24.800781 24.800781-24.800781h35.320313c3.472656 20.566406 21.371094 36.695313 43.5 36.695313 22.171875 0 40.035156-16.179688 43.496094-36.695313h35.324218c13.671875 0 24.796875 11.125 24.796875 24.800781v37.707032zm0 0"/><path d="m260.128906 140.1875c-4.140625 0-7.5 3.359375-7.5 7.5s3.359375 7.5 7.5 7.5h24.949219c4.140625 0 7.5-3.359375 7.5-7.5s-3.359375-7.5-7.5-7.5h-4.976563v-28.1875c0-4.140625-3.355468-7.5-7.5-7.5h-10.578124c-4.140626 0-7.5 3.359375-7.5 7.5s3.359374 7.5 7.5 7.5h3.078124v20.6875zm0 0"/><path d="m280.105469 92.898438c0 4.144531-3.359375 7.5-7.5 7.5-4.144531 0-7.5-3.355469-7.5-7.5 0-4.140626 3.355469-7.5 7.5-7.5 4.140625 0 7.5 3.359374 7.5 7.5zm0 0"/></svg>